<svg width="16" height="16" viewBox="0 0 16 16" fill="none" xmlns="http://www.w3.org/2000/svg">
<path fill-rule="evenodd" clip-rule="evenodd" d="M4.5625 4.5076e-07L14.875 0C15.0573 0 15.2322 0.0724328 15.3611 0.201364C15.4901 0.330295 15.5625 0.505164 15.5625 0.6875V11C15.5625 11.3797 15.2547 11.6875 14.875 11.6875C14.4953 11.6875 14.1875 11.3797 14.1875 11V2.34727L1.61114 14.9236C1.34265 15.1921 0.907349 15.1921 0.638864 14.9236C0.370379 14.6551 0.370379 14.2198 0.638864 13.9514L13.2152 1.375L4.5625 1.375C4.1828 1.375 3.875 1.0672 3.875 0.6875C3.875 0.307805 4.1828 4.5076e-07 4.5625 4.5076e-07Z" fill="#F5F5F5" style="fill:#F5F5F5;fill:color(display-p3 0.9608 0.9608 0.9608);fill-opacity:1;"/>
</svg>
