<svg width="30" height="27" viewBox="0 0 30 27" fill="none" xmlns="http://www.w3.org/2000/svg">
<g clip-path="url(#clip0_456_116)">
<path d="M3.33333 -0.166809C1.49479 -0.166809 0 1.32798 0 3.16652V8.16652C0 10.0051 1.49479 11.4999 3.33333 11.4999H26.6667C28.5052 11.4999 30 10.0051 30 8.16652V3.16652C30 1.32798 28.5052 -0.166809 26.6667 -0.166809H3.33333ZM4.16667 6.49986H25.8333C26.2917 6.49986 26.6667 6.87486 26.6667 7.33319C26.6667 7.79152 26.2917 8.16652 25.8333 8.16652H4.16667C3.70833 8.16652 3.33333 7.79152 3.33333 7.33319C3.33333 6.87486 3.70833 6.49986 4.16667 6.49986ZM13.3333 13.1665H10V21.4999C10 22.4217 9.25521 23.1665 8.33333 23.1665C7.41146 23.1665 6.66667 22.4217 6.66667 21.4999C6.66667 20.8853 7 20.3436 7.5 20.0571C8.29687 19.5936 8.56771 18.578 8.10937 17.7811C7.65104 16.9842 6.63021 16.7134 5.83333 17.1717C4.34375 18.0311 3.33333 19.6457 3.33333 21.4999C3.33333 24.2603 5.57292 26.4999 8.33333 26.4999C11.0937 26.4999 13.3333 24.2603 13.3333 21.4999V13.1665ZM16.6667 19.8332C16.6667 22.5936 18.9062 24.8332 21.6667 24.8332C24.4271 24.8332 26.6667 22.5936 26.6667 19.8332C26.6667 17.979 25.6562 16.3644 24.1667 15.5051C23.3698 15.0467 22.349 15.3176 21.8906 16.1144C21.4323 16.9113 21.7031 17.9321 22.5 18.3905C23 18.6821 23.3333 19.2186 23.3333 19.8332C23.3333 20.7551 22.5885 21.4999 21.6667 21.4999C20.7448 21.4999 20 20.7551 20 19.8332V13.1665H16.6667V19.8332Z" fill="#F5F5F5" style="fill:#F5F5F5;fill:color(display-p3 0.9608 0.9608 0.9608);fill-opacity:1;"/>
</g>
<defs>
<clipPath id="clip0_456_116">
<rect width="30" height="26.6667" fill="white" style="fill:white;fill-opacity:1;"/>
</clipPath>
</defs>
</svg>
