<svg width="16" height="16" viewBox="0 0 16 16" fill="none" xmlns="http://www.w3.org/2000/svg">
<g clip-path="url(#clip0_388_2320)">
<path d="M10 11.3333H13.3333L12.3967 10.3967C12.1427 10.1427 12 9.79819 12 9.43897V7.33334C12 5.59171 10.8869 4.11006 9.33334 3.56094V3.33333C9.33334 2.59695 8.73638 2 8.00001 2C7.26363 2 6.66667 2.59695 6.66667 3.33333V3.56094C5.11308 4.11006 4.00001 5.59171 4.00001 7.33334V9.43897C4.00001 9.79819 3.8573 10.1427 3.60329 10.3967L2.66667 11.3333H6.00001M10 11.3333V12C10 13.1046 9.10457 14 8.00001 14C6.89544 14 6.00001 13.1046 6.00001 12V11.3333M10 11.3333H6.00001" stroke="#F5F5F5" style="stroke:#F5F5F5;stroke:color(display-p3 0.9608 0.9608 0.9608);stroke-opacity:1;" stroke-width="1.2" stroke-linecap="round" stroke-linejoin="round"/>
<rect x="-0.400137" y="10.8" width="5.6" height="5.6" rx="2.8" fill="#FF4545" style="fill:#FF4545;fill:color(display-p3 1.0000 0.2706 0.2706);fill-opacity:1;"/>
<rect x="-0.400137" y="10.8" width="5.6" height="5.6" rx="2.8" stroke="#F5F5F5" style="stroke:#F5F5F5;stroke:color(display-p3 0.9608 0.9608 0.9608);stroke-opacity:1;" stroke-width="0.8"/>
</g>
<defs>
<clipPath id="clip0_388_2320">
<rect width="16" height="16" fill="white" style="fill:white;fill-opacity:1;"/>
</clipPath>
</defs>
</svg>
