<svg width="44" height="44" viewBox="0 0 44 44" fill="none" xmlns="http://www.w3.org/2000/svg">
<path d="M22.0002 26.8125C24.6581 26.8125 26.8127 24.6579 26.8127 22C26.8127 19.3421 24.6581 17.1875 22.0002 17.1875C19.3424 17.1875 17.1877 19.3421 17.1877 22C17.1877 24.6579 19.3424 26.8125 22.0002 26.8125Z" stroke="#DFFE52" style="stroke:#DFFE52;stroke:color(display-p3 0.8745 0.9961 0.3216);stroke-opacity:1;" stroke-width="2.75" stroke-linecap="round" stroke-linejoin="round"/>
<path d="M19.7659 17.7375C18.5112 15.0906 17.1877 11.7906 17.1877 9.625C17.1877 8.34865 17.6948 7.12457 18.5973 6.22205C19.4998 5.31953 20.7239 4.8125 22.0002 4.8125C23.2766 4.8125 24.5007 5.31953 25.4032 6.22205C26.3057 7.12457 26.8127 8.34865 26.8127 9.625C26.8127 11.7906 25.4893 15.0906 24.2346 17.7375" stroke="#DFFE52" style="stroke:#DFFE52;stroke:color(display-p3 0.8745 0.9961 0.3216);stroke-opacity:1;" stroke-width="2.75" stroke-linecap="round" stroke-linejoin="round"/>
<path d="M17.188 21.7937C14.2661 21.5703 10.7427 21.0547 8.86924 19.9719C7.83942 19.2981 7.10685 18.2554 6.82212 17.0582C6.53739 15.8609 6.72214 14.6001 7.33839 13.5348C7.95464 12.4696 8.95556 11.6809 10.1354 11.3309C11.3152 10.9809 12.5843 11.0962 13.6817 11.6531C15.5552 12.7187 17.7552 15.5203 19.4224 17.9437" stroke="#DFFE52" style="stroke:#DFFE52;stroke:color(display-p3 0.8745 0.9961 0.3216);stroke-opacity:1;" stroke-width="2.75" stroke-linecap="round" stroke-linejoin="round"/>
<path d="M19.4233 26.0562C17.7561 28.4797 15.5561 31.2812 13.6827 32.3469C13.1352 32.705 12.5204 32.9478 11.876 33.0604C11.2315 33.173 10.5709 33.153 9.9344 33.0016C9.29793 32.8503 8.69901 32.5707 8.17422 32.1801C7.64943 31.7894 7.20981 31.2959 6.8822 30.7296C6.5546 30.1633 6.34589 29.5362 6.26884 28.8865C6.19179 28.2368 6.24802 27.5783 6.43407 26.9511C6.62013 26.3239 6.93212 25.7412 7.35097 25.2386C7.76982 24.736 8.28674 24.3242 8.87015 24.0281C10.7436 22.9453 14.267 22.4297 17.1889 22.2062" stroke="#DFFE52" style="stroke:#DFFE52;stroke:color(display-p3 0.8745 0.9961 0.3216);stroke-opacity:1;" stroke-width="2.75" stroke-linecap="round" stroke-linejoin="round"/>
<path d="M24.2346 26.2625C25.4893 28.9094 26.8127 32.2094 26.8127 34.375C26.8127 35.6514 26.3057 36.8754 25.4032 37.7779C24.5007 38.6805 23.2766 39.1875 22.0002 39.1875C20.7239 39.1875 19.4998 38.6805 18.5973 37.7779C17.6948 36.8754 17.1877 35.6514 17.1877 34.375C17.1877 32.2094 18.5112 28.9094 19.7659 26.2625" stroke="#DFFE52" style="stroke:#DFFE52;stroke:color(display-p3 0.8745 0.9961 0.3216);stroke-opacity:1;" stroke-width="2.75" stroke-linecap="round" stroke-linejoin="round"/>
<path d="M26.8127 22.2063C29.7346 22.4297 33.2581 22.9453 35.1315 24.0281C36.1613 24.7019 36.8939 25.7446 37.1786 26.9418C37.4633 28.1391 37.2786 29.3999 36.6623 30.4652C36.0461 31.5304 35.0452 32.3191 33.8653 32.6691C32.6855 33.0191 31.4164 32.9038 30.319 32.3469C28.4456 31.2813 26.2456 28.4797 24.5784 26.0563" stroke="#DFFE52" style="stroke:#DFFE52;stroke:color(display-p3 0.8745 0.9961 0.3216);stroke-opacity:1;" stroke-width="2.75" stroke-linecap="round" stroke-linejoin="round"/>
<path d="M24.5784 17.9437C26.2456 15.5203 28.4456 12.7187 30.319 11.6531C31.4164 11.0962 32.6855 10.9809 33.8653 11.3309C35.0452 11.6809 36.0461 12.4696 36.6623 13.5348C37.2786 14.6001 37.4633 15.8609 37.1786 17.0582C36.8939 18.2554 36.1613 19.2981 35.1315 19.9719C33.2581 21.0547 29.7346 21.5703 26.8127 21.7937" stroke="#DFFE52" style="stroke:#DFFE52;stroke:color(display-p3 0.8745 0.9961 0.3216);stroke-opacity:1;" stroke-width="2.75" stroke-linecap="round" stroke-linejoin="round"/>
</svg>
