<svg width="25" height="23" viewBox="0 0 25 23" fill="none" xmlns="http://www.w3.org/2000/svg">
<path d="M0.303223 21.4484C0.303223 22.134 0.859009 22.6898 1.5446 22.6898C2.2302 22.6898 2.78598 22.134 2.78598 21.4484L2.78598 1.58634C2.78598 0.900747 2.2302 0.344963 1.5446 0.344963C0.859007 0.344963 0.303221 0.900747 0.303221 1.58634L0.303223 21.4484Z" fill="#F5F5F5" style="fill:#F5F5F5;fill:color(display-p3 0.9608 0.9608 0.9608);fill-opacity:1;"/>
<path d="M10.9909 19.3764C12.8294 20.4565 14.2851 21.3116 15.4742 21.8696C16.669 22.4303 17.7832 22.7864 18.9034 22.6666C20.611 22.484 22.1555 21.5733 23.1571 20.1707C23.8112 19.2546 24.0639 18.107 24.1838 16.7769C24.3032 15.4524 24.3032 13.744 24.3032 11.5818L24.3032 11.4529C24.3032 9.29071 24.3032 7.58234 24.1838 6.25788C24.0639 4.92772 23.8112 3.7802 23.1571 2.86405C22.1555 1.46143 20.611 0.550799 18.9034 0.368184C17.7832 0.248383 16.669 0.604481 15.4742 1.16515C14.2851 1.72314 12.8295 2.57828 10.991 3.65831L10.8773 3.72508C9.03852 4.80529 7.58294 5.66037 6.51372 6.42901C5.4374 7.20276 4.58459 8.00228 4.1319 9.03684C3.44079 10.6163 3.44079 12.4185 4.1319 13.9979C4.58459 15.0325 5.43739 15.832 6.51372 16.6057C7.58293 17.3744 9.0385 18.2294 10.8773 19.3096L10.9909 19.3764Z" fill="#F5F5F5" style="fill:#F5F5F5;fill:color(display-p3 0.9608 0.9608 0.9608);fill-opacity:1;"/>
</svg>
