<svg width="24" height="24" viewBox="0 0 24 24" fill="none" xmlns="http://www.w3.org/2000/svg">
<path d="M12 9.75V13.5" stroke="#FF4545" style="stroke:#FF4545;stroke:color(display-p3 1.0000 0.2706 0.2706);stroke-opacity:1;" stroke-width="1.5" stroke-linecap="round" stroke-linejoin="round"/>
<path d="M10.7058 3.74999L2.45585 18C2.32442 18.2276 2.25512 18.4858 2.25488 18.7487C2.25465 19.0115 2.3235 19.2698 2.45452 19.4977C2.58555 19.7256 2.77416 19.915 3.00145 20.0471C3.22875 20.1791 3.48674 20.2491 3.7496 20.25H20.2496C20.5125 20.2491 20.7705 20.1791 20.9977 20.0471C21.225 19.915 21.4136 19.7256 21.5447 19.4977C21.6757 19.2698 21.7445 19.0115 21.7443 18.7487C21.7441 18.4858 21.6748 18.2276 21.5434 18L13.2934 3.74999C13.1629 3.52206 12.9746 3.33263 12.7474 3.20088C12.5202 3.06914 12.2622 2.99976 11.9996 2.99976C11.737 2.99976 11.479 3.06914 11.2518 3.20088C11.0246 3.33263 10.8363 3.52206 10.7058 3.74999V3.74999Z" stroke="#FF4545" style="stroke:#FF4545;stroke:color(display-p3 1.0000 0.2706 0.2706);stroke-opacity:1;" stroke-width="1.5" stroke-linecap="round" stroke-linejoin="round"/>
<path d="M12 18C12.6213 18 13.125 17.4963 13.125 16.875C13.125 16.2537 12.6213 15.75 12 15.75C11.3787 15.75 10.875 16.2537 10.875 16.875C10.875 17.4963 11.3787 18 12 18Z" fill="#FF4545" style="fill:#FF4545;fill:color(display-p3 1.0000 0.2706 0.2706);fill-opacity:1;"/>
</svg>
