<svg width="25" height="23" viewBox="0 0 25 23" fill="none" xmlns="http://www.w3.org/2000/svg">
<path d="M24.6968 1.58632C24.6968 0.900725 24.141 0.34494 23.4554 0.34494C22.7698 0.34494 22.214 0.900725 22.214 1.58632V21.4484C22.214 22.134 22.7698 22.6898 23.4554 22.6898C24.141 22.6898 24.6968 22.134 24.6968 21.4484V1.58632Z" fill="#F5F5F5" style="fill:#F5F5F5;fill:color(display-p3 0.9608 0.9608 0.9608);fill-opacity:1;"/>
<path d="M14.0091 3.65832C12.1706 2.57828 10.7149 1.72312 9.52579 1.16513C8.33098 0.604463 7.21685 0.248363 6.09662 0.368165C4.38905 0.550779 2.84449 1.4614 1.84295 2.86403C1.18878 3.78018 0.93611 4.9277 0.816177 6.25786C0.696758 7.58231 0.696767 9.29068 0.696778 11.4529V11.5818C0.696766 13.744 0.696756 15.4524 0.816174 16.7768C0.936107 18.107 1.18878 19.2545 1.84294 20.1707C2.84448 21.5733 4.38904 22.4839 6.09661 22.6665C7.21684 22.7863 8.33097 22.4302 9.52578 21.8696C10.7149 21.3116 12.1705 20.4565 14.009 19.3764L14.1227 19.3097C15.9615 18.2294 17.4171 17.3744 18.4863 16.6057C19.5626 15.832 20.4154 15.0324 20.8681 13.9979C21.5592 12.4184 21.5592 10.6163 20.8681 9.03682C20.4154 8.00227 19.5626 7.20274 18.4863 6.42899C17.4171 5.66036 15.9615 4.80528 14.1227 3.72508L14.0091 3.65832Z" fill="#F5F5F5" style="fill:#F5F5F5;fill:color(display-p3 0.9608 0.9608 0.9608);fill-opacity:1;"/>
</svg>
