<svg width="1180" height="229" viewBox="0 0 1180 229" fill="none" xmlns="http://www.w3.org/2000/svg">
<rect x="40.1449" y="200.749" width="49.466" height="27.2063" rx="13.6031" stroke="#737373" style="stroke:#737373;stroke:color(display-p3 0.4510 0.4510 0.4510);stroke-opacity:1;" stroke-width="0.824433"/>
<path d="M56.398 210.132C56.2391 210.132 56.1038 210.078 55.9922 209.971C55.8806 209.863 55.8247 209.732 55.8247 209.578C55.8247 209.427 55.8806 209.301 55.9922 209.198C56.1038 209.09 56.2391 209.037 56.398 209.037C56.5483 209.037 56.6771 209.09 56.7844 209.198C56.8961 209.301 56.9519 209.427 56.9519 209.578C56.9519 209.732 56.8982 209.863 56.7909 209.971C56.6835 210.078 56.5526 210.132 56.398 210.132ZM55.142 221.107C54.8586 221.107 54.5902 221.049 54.3369 220.933V220.237C54.5215 220.34 54.7448 220.392 55.0067 220.392C55.6766 220.392 56.0115 220.044 56.0115 219.348V211.716H56.778V219.445C56.778 219.986 56.6341 220.398 56.3465 220.682C56.0588 220.965 55.6573 221.107 55.142 221.107ZM64.488 211.716H65.2545V218.44H64.488V216.882C64.2046 217.414 63.8095 217.835 63.3029 218.144C62.7962 218.449 62.2251 218.601 61.5896 218.601C60.6149 218.601 59.8012 218.264 59.1485 217.59C58.4958 216.916 58.1695 216.079 58.1695 215.078C58.1695 214.078 58.4958 213.24 59.1485 212.566C59.8012 211.892 60.6149 211.555 61.5896 211.555C62.2251 211.555 62.7962 211.707 63.3029 212.012C63.8095 212.317 64.2046 212.736 64.488 213.268V211.716ZM61.7184 217.861C62.5085 217.861 63.1676 217.597 63.6958 217.068C64.2239 216.536 64.488 215.873 64.488 215.078C64.488 214.284 64.2239 213.623 63.6958 213.094C63.1676 212.562 62.5085 212.296 61.7184 212.296C60.9326 212.296 60.2756 212.562 59.7475 213.094C59.2236 213.623 58.9617 214.284 58.9617 215.078C58.9617 215.873 59.2236 216.536 59.7475 217.068C60.2756 217.597 60.9326 217.861 61.7184 217.861ZM70.4525 211.555C71.2984 211.555 71.979 211.813 72.4943 212.328C73.0138 212.839 73.2736 213.517 73.2736 214.363V218.44H72.5136V214.589C72.5136 213.897 72.3032 213.343 71.8824 212.927C71.4659 212.506 70.9141 212.296 70.2271 212.296C69.5143 212.296 68.9389 212.508 68.5009 212.933C68.0629 213.358 67.8439 213.919 67.8439 214.614V218.44H67.0775V211.716H67.8439V212.978C68.0973 212.523 68.4472 212.173 68.8938 211.929C69.3447 211.68 69.8642 211.555 70.4525 211.555Z" fill="#737373" style="fill:#737373;fill:color(display-p3 0.4510 0.4510 0.4510);fill-opacity:1;"/>
<rect x="135.779" y="200.749" width="49.466" height="27.2063" rx="13.6031" stroke="#737373" style="stroke:#737373;stroke:color(display-p3 0.4510 0.4510 0.4510);stroke-opacity:1;" stroke-width="0.824433"/>
<path d="M153.787 209.494C152.992 209.494 152.595 209.874 152.595 210.634V211.716H154.708V212.412H152.595V218.44H151.835V212.412H150.515V211.716H151.835V210.576C151.835 209.988 151.987 209.543 152.292 209.243C152.601 208.938 153.046 208.785 153.626 208.785C154.029 208.785 154.403 208.873 154.746 209.05V209.732C154.459 209.573 154.139 209.494 153.787 209.494ZM161.909 215.078C161.909 215.16 161.9 215.269 161.883 215.407H155.706C155.788 216.137 156.093 216.733 156.621 217.197C157.153 217.657 157.804 217.886 158.572 217.886C159.109 217.886 159.601 217.77 160.047 217.539C160.494 217.302 160.842 216.991 161.091 216.605L161.632 217.056C161.305 217.536 160.872 217.914 160.331 218.189C159.79 218.464 159.193 218.601 158.54 218.601C157.501 218.601 156.634 218.264 155.938 217.59C155.247 216.912 154.901 216.07 154.901 215.065C154.901 214.065 155.236 213.23 155.906 212.56C156.576 211.89 157.411 211.555 158.411 211.555C159.408 211.555 160.238 211.892 160.904 212.566C161.574 213.236 161.909 214.073 161.909 215.078ZM160.228 212.953C159.725 212.498 159.116 212.27 158.398 212.27C157.681 212.27 157.074 212.498 156.576 212.953C156.078 213.408 155.788 213.996 155.706 214.717H161.104C161.022 213.996 160.73 213.408 160.228 212.953ZM166.92 211.555C167.899 211.555 168.715 211.892 169.368 212.566C170.025 213.236 170.353 214.073 170.353 215.078C170.353 216.083 170.025 216.922 169.368 217.597C168.715 218.266 167.899 218.601 166.92 218.601C166.289 218.601 165.718 218.447 165.207 218.138C164.7 217.828 164.305 217.41 164.022 216.882V218.44H163.255V208.94H164.022V213.268C164.301 212.74 164.696 212.324 165.207 212.019C165.718 211.71 166.289 211.555 166.92 211.555ZM164.814 217.068C165.342 217.597 166.001 217.861 166.791 217.861C167.581 217.861 168.24 217.597 168.769 217.068C169.297 216.536 169.561 215.873 169.561 215.078C169.561 214.284 169.297 213.623 168.769 213.094C168.24 212.562 167.581 212.296 166.791 212.296C166.001 212.296 165.342 212.562 164.814 213.094C164.286 213.623 164.022 214.284 164.022 215.078C164.022 215.873 164.286 216.536 164.814 217.068Z" fill="#737373" style="fill:#737373;fill:color(display-p3 0.4510 0.4510 0.4510);fill-opacity:1;"/>
<rect x="231.413" y="200.749" width="49.466" height="27.2063" rx="13.6031" stroke="#737373" style="stroke:#737373;stroke:color(display-p3 0.4510 0.4510 0.4510);stroke-opacity:1;" stroke-width="0.824433"/>
<path d="M252.183 211.555C252.96 211.555 253.583 211.789 254.051 212.257C254.519 212.721 254.753 213.339 254.753 214.112V218.44H253.986V214.325C253.986 213.711 253.802 213.219 253.432 212.85C253.067 212.48 252.58 212.296 251.97 212.296C251.335 212.296 250.824 212.485 250.437 212.863C250.051 213.236 249.858 213.732 249.858 214.35V218.44H249.098V214.325C249.098 213.715 248.911 213.225 248.537 212.856C248.168 212.482 247.681 212.296 247.075 212.296C246.44 212.296 245.927 212.485 245.536 212.863C245.149 213.236 244.956 213.732 244.956 214.35V218.44H244.19V211.716H244.956V212.824C245.197 212.416 245.517 212.102 245.916 211.883C246.315 211.664 246.777 211.555 247.301 211.555C247.863 211.555 248.351 211.686 248.763 211.948C249.179 212.206 249.48 212.566 249.665 213.03C249.892 212.562 250.223 212.199 250.656 211.941C251.09 211.684 251.599 211.555 252.183 211.555ZM262.392 211.716H263.158V218.44H262.392V216.882C262.109 217.414 261.714 217.835 261.207 218.144C260.7 218.449 260.129 218.601 259.494 218.601C258.519 218.601 257.705 218.264 257.052 217.59C256.4 216.916 256.073 216.079 256.073 215.078C256.073 214.078 256.4 213.24 257.052 212.566C257.705 211.892 258.519 211.555 259.494 211.555C260.129 211.555 260.7 211.707 261.207 212.012C261.714 212.317 262.109 212.736 262.392 213.268V211.716ZM259.622 217.861C260.412 217.861 261.072 217.597 261.6 217.068C262.128 216.536 262.392 215.873 262.392 215.078C262.392 214.284 262.128 213.623 261.6 213.094C261.072 212.562 260.412 212.296 259.622 212.296C258.837 212.296 258.18 212.562 257.651 213.094C257.128 213.623 256.866 214.284 256.866 215.078C256.866 215.873 257.128 216.536 257.651 217.068C258.18 217.597 258.837 217.861 259.622 217.861ZM268.279 211.607H268.479V212.399H268.279C267.506 212.399 266.89 212.631 266.431 213.094C265.976 213.558 265.748 214.183 265.748 214.969V218.44H264.981V211.716H265.748V213.127C265.997 212.646 266.338 212.272 266.772 212.006C267.21 211.74 267.712 211.607 268.279 211.607Z" fill="#737373" style="fill:#737373;fill:color(display-p3 0.4510 0.4510 0.4510);fill-opacity:1;"/>
<rect x="327.048" y="200.749" width="49.466" height="27.2063" rx="13.6031" stroke="#737373" style="stroke:#737373;stroke:color(display-p3 0.4510 0.4510 0.4510);stroke-opacity:1;" stroke-width="0.824433"/>
<path d="M347.717 211.716H348.484V218.44H347.717V216.882C347.434 217.414 347.039 217.835 346.532 218.144C346.026 218.449 345.455 218.601 344.819 218.601C343.844 218.601 343.031 218.264 342.378 217.59C341.725 216.916 341.399 216.079 341.399 215.078C341.399 214.078 341.725 213.24 342.378 212.566C343.031 211.892 343.844 211.555 344.819 211.555C345.455 211.555 346.026 211.707 346.532 212.012C347.039 212.317 347.434 212.736 347.717 213.268V211.716ZM344.948 217.861C345.738 217.861 346.397 217.597 346.925 217.068C347.453 216.536 347.717 215.873 347.717 215.078C347.717 214.284 347.453 213.623 346.925 213.094C346.397 212.562 345.738 212.296 344.948 212.296C344.162 212.296 343.505 212.562 342.977 213.094C342.453 213.623 342.191 214.284 342.191 215.078C342.191 215.873 342.453 216.536 342.977 217.068C343.505 217.597 344.162 217.861 344.948 217.861ZM353.972 211.555C354.951 211.555 355.767 211.892 356.419 212.566C357.076 213.236 357.405 214.073 357.405 215.078C357.405 216.083 357.076 216.922 356.419 217.597C355.767 218.266 354.951 218.601 353.972 218.601C353.341 218.601 352.77 218.447 352.259 218.138C351.752 217.828 351.357 217.41 351.073 216.882V220.946H350.307V211.716H351.073V213.268C351.353 212.74 351.748 212.324 352.259 212.019C352.77 211.71 353.341 211.555 353.972 211.555ZM351.866 217.068C352.394 217.597 353.053 217.861 353.843 217.861C354.633 217.861 355.292 217.597 355.82 217.068C356.349 216.536 356.613 215.873 356.613 215.078C356.613 214.284 356.349 213.623 355.82 213.094C355.292 212.562 354.633 212.296 353.843 212.296C353.053 212.296 352.394 212.562 351.866 213.094C351.338 213.623 351.073 214.284 351.073 215.078C351.073 215.873 351.338 216.536 351.866 217.068ZM362.088 211.607H362.287V212.399H362.088C361.315 212.399 360.699 212.631 360.239 213.094C359.784 213.558 359.556 214.183 359.556 214.969V218.44H358.79V211.716H359.556V213.127C359.805 212.646 360.147 212.272 360.58 212.006C361.018 211.74 361.521 211.607 362.088 211.607Z" fill="#737373" style="fill:#737373;fill:color(display-p3 0.4510 0.4510 0.4510);fill-opacity:1;"/>
<rect x="422.682" y="200.749" width="49.466" height="27.2063" rx="13.6031" stroke="#737373" style="stroke:#737373;stroke:color(display-p3 0.4510 0.4510 0.4510);stroke-opacity:1;" stroke-width="0.824433"/>
<path d="M441.951 211.555C442.729 211.555 443.351 211.789 443.819 212.257C444.287 212.721 444.521 213.339 444.521 214.112V218.44H443.755V214.325C443.755 213.711 443.57 213.219 443.201 212.85C442.836 212.48 442.349 212.296 441.739 212.296C441.103 212.296 440.592 212.485 440.206 212.863C439.819 213.236 439.626 213.732 439.626 214.35V218.44H438.866V214.325C438.866 213.715 438.679 213.225 438.306 212.856C437.937 212.482 437.449 212.296 436.844 212.296C436.208 212.296 435.695 212.485 435.304 212.863C434.918 213.236 434.725 213.732 434.725 214.35V218.44H433.958V211.716H434.725V212.824C434.965 212.416 435.285 212.102 435.684 211.883C436.084 211.664 436.545 211.555 437.069 211.555C437.632 211.555 438.119 211.686 438.531 211.948C438.948 212.206 439.248 212.566 439.433 213.03C439.661 212.562 439.991 212.199 440.425 211.941C440.859 211.684 441.367 211.555 441.951 211.555ZM452.16 211.716H452.927V218.44H452.16V216.882C451.877 217.414 451.482 217.835 450.975 218.144C450.469 218.449 449.898 218.601 449.262 218.601C448.287 218.601 447.474 218.264 446.821 217.59C446.168 216.916 445.842 216.079 445.842 215.078C445.842 214.078 446.168 213.24 446.821 212.566C447.474 211.892 448.287 211.555 449.262 211.555C449.898 211.555 450.469 211.707 450.975 212.012C451.482 212.317 451.877 212.736 452.16 213.268V211.716ZM449.391 217.861C450.181 217.861 450.84 217.597 451.368 217.068C451.896 216.536 452.16 215.873 452.16 215.078C452.16 214.284 451.896 213.623 451.368 213.094C450.84 212.562 450.181 212.296 449.391 212.296C448.605 212.296 447.948 212.562 447.42 213.094C446.896 213.623 446.634 214.284 446.634 215.078C446.634 215.873 446.896 216.536 447.42 217.068C447.948 217.597 448.605 217.861 449.391 217.861ZM460.064 211.716H460.92L457.094 220.012C456.94 220.364 456.727 220.635 456.457 220.823C456.191 221.012 455.899 221.107 455.581 221.107C455.332 221.107 455.078 221.049 454.821 220.933C454.567 220.817 454.355 220.667 454.183 220.482L454.524 219.902C454.778 220.212 455.093 220.366 455.471 220.366C455.871 220.366 456.18 220.147 456.399 219.709L457.017 218.427L453.971 211.716H454.853L457.468 217.558L460.064 211.716Z" fill="#737373" style="fill:#737373;fill:color(display-p3 0.4510 0.4510 0.4510);fill-opacity:1;"/>
<rect x="518.316" y="200.749" width="49.466" height="27.2063" rx="13.6031" stroke="#737373" style="stroke:#737373;stroke:color(display-p3 0.4510 0.4510 0.4510);stroke-opacity:1;" stroke-width="0.824433"/>
<path d="M535.069 210.132C534.91 210.132 534.775 210.078 534.663 209.971C534.552 209.863 534.496 209.732 534.496 209.578C534.496 209.427 534.552 209.301 534.663 209.198C534.775 209.09 534.91 209.037 535.069 209.037C535.219 209.037 535.348 209.09 535.456 209.198C535.567 209.301 535.623 209.427 535.623 209.578C535.623 209.732 535.569 209.863 535.462 209.971C535.355 210.078 535.224 210.132 535.069 210.132ZM533.813 221.107C533.53 221.107 533.261 221.049 533.008 220.933V220.237C533.193 220.34 533.416 220.392 533.678 220.392C534.348 220.392 534.683 220.044 534.683 219.348V211.716H535.449V219.445C535.449 219.986 535.305 220.398 535.018 220.682C534.73 220.965 534.328 221.107 533.813 221.107ZM542.322 217.828C541.781 218.344 541.062 218.601 540.164 218.601C539.267 218.601 538.545 218.344 538 217.828C537.459 217.313 537.188 216.633 537.188 215.787V211.716H537.948V215.684C537.948 216.336 538.15 216.862 538.554 217.262C538.962 217.661 539.499 217.861 540.164 217.861C540.83 217.861 541.362 217.663 541.761 217.268C542.165 216.869 542.367 216.341 542.367 215.684V211.716H543.133V215.787C543.133 216.633 542.863 217.313 542.322 217.828ZM548.261 211.555C549.106 211.555 549.787 211.813 550.302 212.328C550.822 212.839 551.082 213.517 551.082 214.363V218.44H550.322V214.589C550.322 213.897 550.111 213.343 549.69 212.927C549.274 212.506 548.722 212.296 548.035 212.296C547.322 212.296 546.747 212.508 546.309 212.933C545.871 213.358 545.652 213.919 545.652 214.614V218.44H544.886V211.716H545.652V212.978C545.905 212.523 546.255 212.173 546.702 211.929C547.153 211.68 547.672 211.555 548.261 211.555Z" fill="#737373" style="fill:#737373;fill:color(display-p3 0.4510 0.4510 0.4510);fill-opacity:1;"/>
<rect x="613.95" y="200.749" width="49.466" height="27.2063" rx="13.6031" stroke="#737373" style="stroke:#737373;stroke:color(display-p3 0.4510 0.4510 0.4510);stroke-opacity:1;" stroke-width="0.824433"/>
<path d="M633.203 210.132C633.045 210.132 632.909 210.078 632.798 209.971C632.686 209.863 632.63 209.732 632.63 209.578C632.63 209.427 632.686 209.301 632.798 209.198C632.909 209.09 633.045 209.037 633.203 209.037C633.354 209.037 633.483 209.09 633.59 209.198C633.701 209.301 633.757 209.427 633.757 209.578C633.757 209.732 633.704 209.863 633.596 209.971C633.489 210.078 633.358 210.132 633.203 210.132ZM631.947 221.107C631.664 221.107 631.396 221.049 631.142 220.933V220.237C631.327 220.34 631.55 220.392 631.812 220.392C632.482 220.392 632.817 220.044 632.817 219.348V211.716H633.583V219.445C633.583 219.986 633.44 220.398 633.152 220.682C632.864 220.965 632.463 221.107 631.947 221.107ZM640.456 217.828C639.915 218.344 639.196 218.601 638.298 218.601C637.401 218.601 636.68 218.344 636.134 217.828C635.593 217.313 635.323 216.633 635.323 215.787V211.716H636.083V215.684C636.083 216.336 636.285 216.862 636.688 217.262C637.096 217.661 637.633 217.861 638.298 217.861C638.964 217.861 639.496 217.663 639.896 217.268C640.299 216.869 640.501 216.341 640.501 215.684V211.716H641.268V215.787C641.268 216.633 640.997 217.313 640.456 217.828ZM643.02 218.44V208.94H643.786V218.44H643.02Z" fill="#737373" style="fill:#737373;fill:color(display-p3 0.4510 0.4510 0.4510);fill-opacity:1;"/>
<rect x="709.584" y="200.749" width="49.466" height="27.2063" rx="13.6031" stroke="#737373" style="stroke:#737373;stroke:color(display-p3 0.4510 0.4510 0.4510);stroke-opacity:1;" stroke-width="0.824433"/>
<path d="M729.254 211.716H730.021V218.44H729.254V216.882C728.971 217.414 728.576 217.835 728.069 218.144C727.563 218.449 726.991 218.601 726.356 218.601C725.381 218.601 724.568 218.264 723.915 217.59C723.262 216.916 722.936 216.079 722.936 215.078C722.936 214.078 723.262 213.24 723.915 212.566C724.568 211.892 725.381 211.555 726.356 211.555C726.991 211.555 727.563 211.707 728.069 212.012C728.576 212.317 728.971 212.736 729.254 213.268V211.716ZM726.485 217.861C727.275 217.861 727.934 217.597 728.462 217.068C728.99 216.536 729.254 215.873 729.254 215.078C729.254 214.284 728.99 213.623 728.462 213.094C727.934 212.562 727.275 212.296 726.485 212.296C725.699 212.296 725.042 212.562 724.514 213.094C723.99 213.623 723.728 214.284 723.728 215.078C723.728 215.873 723.99 216.536 724.514 217.068C725.042 217.597 725.699 217.861 726.485 217.861ZM736.9 217.828C736.359 218.344 735.64 218.601 734.742 218.601C733.845 218.601 733.123 218.344 732.578 217.828C732.037 217.313 731.767 216.633 731.767 215.787V211.716H732.527V215.684C732.527 216.336 732.728 216.862 733.132 217.262C733.54 217.661 734.077 217.861 734.742 217.861C735.408 217.861 735.94 217.663 736.34 217.268C736.743 216.869 736.945 216.341 736.945 215.684V211.716H737.711V215.787C737.711 216.633 737.441 217.313 736.9 217.828ZM743.579 218.73C744.193 218.73 744.696 218.88 745.087 219.181C745.477 219.486 745.692 219.898 745.731 220.418L744.938 220.604C744.93 220.27 744.79 219.999 744.52 219.793C744.249 219.587 743.893 219.484 743.451 219.484H740.797C740.277 219.484 739.857 219.346 739.535 219.072C739.217 218.801 739.058 218.445 739.058 218.002C739.058 217.706 739.129 217.431 739.27 217.178C739.412 216.92 739.605 216.725 739.85 216.592C739.223 216.021 738.91 215.31 738.91 214.46C738.91 213.635 739.197 212.946 739.773 212.392C740.348 211.834 741.067 211.555 741.931 211.555C742.592 211.555 743.178 211.727 743.689 212.07C743.736 211.718 743.884 211.439 744.133 211.233C744.387 211.027 744.709 210.924 745.099 210.924H745.602V211.632H745.138C744.868 211.632 744.649 211.712 744.481 211.871C744.314 212.029 744.23 212.24 744.23 212.502V212.547C744.702 213.075 744.938 213.713 744.938 214.46C744.938 215.284 744.651 215.971 744.075 216.521C743.504 217.071 742.789 217.345 741.931 217.345C741.329 217.345 740.797 217.21 740.333 216.94C740.17 217.03 740.043 217.154 739.953 217.313C739.867 217.472 739.824 217.642 739.824 217.822C739.824 218.097 739.925 218.316 740.127 218.479C740.333 218.646 740.602 218.73 740.932 218.73H743.579ZM739.702 214.46C739.702 215.074 739.915 215.587 740.34 215.999C740.765 216.411 741.295 216.618 741.931 216.618C742.562 216.618 743.088 216.411 743.509 215.999C743.934 215.587 744.146 215.074 744.146 214.46C744.146 213.837 743.936 213.32 743.515 212.908C743.094 212.491 742.566 212.283 741.931 212.283C741.291 212.283 740.758 212.491 740.333 212.908C739.912 213.32 739.702 213.837 739.702 214.46Z" fill="#737373" style="fill:#737373;fill:color(display-p3 0.4510 0.4510 0.4510);fill-opacity:1;"/>
<rect x="805.219" y="200.749" width="49.466" height="27.2063" rx="13.6031" stroke="#737373" style="stroke:#737373;stroke:color(display-p3 0.4510 0.4510 0.4510);stroke-opacity:1;" stroke-width="0.824433"/>
<path d="M821.633 218.601C821.088 218.601 820.588 218.505 820.133 218.311C819.678 218.118 819.293 217.858 818.98 217.532L819.418 216.978C819.675 217.266 819.993 217.491 820.371 217.655C820.753 217.818 821.17 217.899 821.621 217.899C822.157 217.899 822.597 217.79 822.941 217.571C823.289 217.348 823.463 217.053 823.463 216.688C823.463 216.555 823.441 216.435 823.398 216.328C823.355 216.22 823.287 216.126 823.192 216.044C823.098 215.958 823.001 215.885 822.902 215.825C822.808 215.765 822.677 215.707 822.509 215.651C822.346 215.596 822.205 215.55 822.084 215.516C821.964 215.482 821.803 215.441 821.601 215.394C821.412 215.347 821.266 215.31 821.163 215.284C821.065 215.254 820.927 215.211 820.751 215.155C820.579 215.1 820.442 215.048 820.339 215.001C820.24 214.949 820.122 214.887 819.985 214.814C819.847 214.737 819.738 214.655 819.656 214.569C819.579 214.479 819.502 214.38 819.424 214.273C819.347 214.161 819.291 214.037 819.257 213.899C819.222 213.758 819.205 213.605 819.205 213.442C819.205 213.047 819.319 212.706 819.547 212.418C819.778 212.126 820.077 211.909 820.442 211.768C820.811 211.626 821.221 211.555 821.672 211.555C822.63 211.555 823.42 211.866 824.042 212.489L823.611 213.056C823.379 212.807 823.096 212.611 822.761 212.47C822.43 212.324 822.071 212.251 821.685 212.251C821.204 212.251 820.803 212.356 820.481 212.566C820.158 212.772 819.997 213.047 819.997 213.391C819.997 213.55 820.034 213.693 820.107 213.822C820.18 213.951 820.266 214.056 820.365 214.138C820.468 214.219 820.614 214.299 820.803 214.376C820.996 214.449 821.163 214.505 821.305 214.544C821.447 214.582 821.644 214.632 821.898 214.692C822.061 214.73 822.187 214.763 822.278 214.788C822.368 214.81 822.49 214.844 822.645 214.891C822.799 214.939 822.922 214.982 823.012 215.02C823.102 215.055 823.209 215.104 823.334 215.168C823.463 215.228 823.566 215.291 823.643 215.355C823.72 215.42 823.802 215.497 823.888 215.587C823.978 215.673 824.044 215.765 824.087 215.864C824.135 215.963 824.173 216.077 824.203 216.205C824.238 216.33 824.255 216.463 824.255 216.605C824.255 217.219 824.008 217.706 823.514 218.067C823.02 218.423 822.393 218.601 821.633 218.601ZM832.165 215.078C832.165 215.16 832.156 215.269 832.139 215.407H825.962C826.044 216.137 826.348 216.733 826.877 217.197C827.409 217.657 828.06 217.886 828.828 217.886C829.365 217.886 829.857 217.77 830.303 217.539C830.75 217.302 831.098 216.991 831.347 216.605L831.888 217.056C831.561 217.536 831.128 217.914 830.587 218.189C830.046 218.464 829.449 218.601 828.796 218.601C827.757 218.601 826.889 218.264 826.194 217.59C825.503 216.912 825.157 216.07 825.157 215.065C825.157 214.065 825.492 213.23 826.162 212.56C826.832 211.89 827.667 211.555 828.667 211.555C829.663 211.555 830.494 211.892 831.16 212.566C831.83 213.236 832.165 214.073 832.165 215.078ZM830.483 212.953C829.981 212.498 829.371 212.27 828.654 212.27C827.937 212.27 827.33 212.498 826.832 212.953C826.333 213.408 826.044 213.996 825.962 214.717H831.359C831.278 213.996 830.986 213.408 830.483 212.953ZM837.176 211.555C838.155 211.555 838.971 211.892 839.623 212.566C840.28 213.236 840.609 214.073 840.609 215.078C840.609 216.083 840.28 216.922 839.623 217.597C838.971 218.266 838.155 218.601 837.176 218.601C836.545 218.601 835.974 218.447 835.463 218.138C834.956 217.828 834.561 217.41 834.277 216.882V220.946H833.511V211.716H834.277V213.268C834.557 212.74 834.952 212.324 835.463 212.019C835.974 211.71 836.545 211.555 837.176 211.555ZM835.07 217.068C835.598 217.597 836.257 217.861 837.047 217.861C837.837 217.861 838.496 217.597 839.024 217.068C839.553 216.536 839.817 215.873 839.817 215.078C839.817 214.284 839.553 213.623 839.024 213.094C838.496 212.562 837.837 212.296 837.047 212.296C836.257 212.296 835.598 212.562 835.07 213.094C834.542 213.623 834.277 214.284 834.277 215.078C834.277 215.873 834.542 216.536 835.07 217.068Z" fill="#737373" style="fill:#737373;fill:color(display-p3 0.4510 0.4510 0.4510);fill-opacity:1;"/>
<rect x="900.853" y="200.749" width="49.466" height="27.2063" rx="13.6031" stroke="#737373" style="stroke:#737373;stroke:color(display-p3 0.4510 0.4510 0.4510);stroke-opacity:1;" stroke-width="0.824433"/>
<path d="M919.253 218.601C918.24 218.601 917.392 218.264 916.709 217.59C916.031 216.916 915.691 216.079 915.691 215.078C915.691 214.078 916.031 213.24 916.709 212.566C917.392 211.892 918.24 211.555 919.253 211.555C919.914 211.555 920.516 211.71 921.057 212.019C921.602 212.324 922.029 212.747 922.338 213.288C922.648 213.824 922.802 214.421 922.802 215.078C922.802 215.735 922.648 216.334 922.338 216.875C922.029 217.412 921.602 217.835 921.057 218.144C920.516 218.449 919.914 218.601 919.253 218.601ZM917.276 217.068C917.804 217.597 918.463 217.861 919.253 217.861C920.043 217.861 920.7 217.597 921.224 217.068C921.748 216.536 922.01 215.873 922.01 215.078C922.01 214.284 921.748 213.623 921.224 213.094C920.7 212.562 920.043 212.296 919.253 212.296C918.463 212.296 917.804 212.562 917.276 213.094C916.748 213.623 916.484 214.284 916.484 215.078C916.484 215.873 916.748 216.536 917.276 217.068ZM927.311 218.601C926.298 218.601 925.45 218.264 924.767 217.59C924.088 216.916 923.749 216.079 923.749 215.078C923.749 214.078 924.088 213.24 924.767 212.566C925.45 211.892 926.298 211.555 927.311 211.555C927.968 211.555 928.565 211.705 929.102 212.006C929.643 212.306 930.066 212.719 930.37 213.243L929.701 213.655C929.464 213.238 929.136 212.908 928.715 212.663C928.294 212.418 927.826 212.296 927.311 212.296C926.521 212.296 925.862 212.562 925.334 213.094C924.805 213.623 924.541 214.284 924.541 215.078C924.541 215.873 924.805 216.536 925.334 217.068C925.862 217.597 926.521 217.861 927.311 217.861C927.826 217.861 928.294 217.738 928.715 217.493C929.136 217.249 929.464 216.918 929.701 216.502L930.37 216.907C930.061 217.431 929.638 217.846 929.102 218.15C928.565 218.451 927.968 218.601 927.311 218.601ZM935.304 212.412H933.16V216.714C933.16 217.478 933.555 217.861 934.345 217.861C934.671 217.861 934.991 217.777 935.304 217.609V218.337C934.974 218.513 934.604 218.601 934.197 218.601C933.613 218.601 933.166 218.453 932.857 218.157C932.548 217.856 932.393 217.414 932.393 216.83V212.412H931.086V211.716H932.393V209.842H933.16V211.716H935.304V212.412Z" fill="#737373" style="fill:#737373;fill:color(display-p3 0.4510 0.4510 0.4510);fill-opacity:1;"/>
<rect x="996.487" y="200.749" width="49.466" height="27.2063" rx="13.6031" stroke="#737373" style="stroke:#737373;stroke:color(display-p3 0.4510 0.4510 0.4510);stroke-opacity:1;" stroke-width="0.824433"/>
<path d="M1013.64 211.555C1014.48 211.555 1015.17 211.813 1015.68 212.328C1016.2 212.839 1016.46 213.517 1016.46 214.363V218.44H1015.7V214.589C1015.7 213.897 1015.49 213.343 1015.07 212.927C1014.65 212.506 1014.1 212.296 1013.41 212.296C1012.7 212.296 1012.13 212.508 1011.69 212.933C1011.25 213.358 1011.03 213.919 1011.03 214.614V218.44H1010.26V211.716H1011.03V212.978C1011.28 212.523 1011.63 212.173 1012.08 211.929C1012.53 211.68 1013.05 211.555 1013.64 211.555ZM1021.33 218.601C1020.32 218.601 1019.47 218.264 1018.79 217.59C1018.11 216.916 1017.77 216.079 1017.77 215.078C1017.77 214.078 1018.11 213.24 1018.79 212.566C1019.47 211.892 1020.32 211.555 1021.33 211.555C1021.99 211.555 1022.59 211.71 1023.13 212.019C1023.68 212.324 1024.11 212.747 1024.41 213.288C1024.72 213.824 1024.88 214.421 1024.88 215.078C1024.88 215.735 1024.72 216.334 1024.41 216.875C1024.11 217.412 1023.68 217.835 1023.13 218.144C1022.59 218.449 1021.99 218.601 1021.33 218.601ZM1019.35 217.068C1019.88 217.597 1020.54 217.861 1021.33 217.861C1022.12 217.861 1022.78 217.597 1023.3 217.068C1023.82 216.536 1024.09 215.873 1024.09 215.078C1024.09 214.284 1023.82 213.623 1023.3 213.094C1022.78 212.562 1022.12 212.296 1021.33 212.296C1020.54 212.296 1019.88 212.562 1019.35 213.094C1018.82 213.623 1018.56 214.284 1018.56 215.078C1018.56 215.873 1018.82 216.536 1019.35 217.068ZM1031.19 211.716H1032.05L1028.99 218.44H1028.16L1025.1 211.716H1025.98L1028.59 217.558L1031.19 211.716Z" fill="#737373" style="fill:#737373;fill:color(display-p3 0.4510 0.4510 0.4510);fill-opacity:1;"/>
<rect x="1092.12" y="200.749" width="49.466" height="27.2063" rx="13.6031" stroke="#737373" style="stroke:#737373;stroke:color(display-p3 0.4510 0.4510 0.4510);stroke-opacity:1;" stroke-width="0.824433"/>
<path d="M1111.29 208.94H1112.06V218.44H1111.29V216.882C1111.01 217.414 1110.61 217.835 1110.11 218.144C1109.6 218.449 1109.03 218.601 1108.39 218.601C1107.42 218.601 1106.6 218.264 1105.95 217.59C1105.3 216.916 1104.97 216.079 1104.97 215.078C1104.97 214.078 1105.3 213.24 1105.95 212.566C1106.6 211.892 1107.42 211.555 1108.39 211.555C1109.03 211.555 1109.6 211.707 1110.11 212.012C1110.61 212.317 1111.01 212.736 1111.29 213.268V208.94ZM1108.52 217.861C1109.31 217.861 1109.97 217.597 1110.5 217.068C1111.03 216.536 1111.29 215.873 1111.29 215.078C1111.29 214.284 1111.03 213.623 1110.5 213.094C1109.97 212.562 1109.31 212.296 1108.52 212.296C1107.74 212.296 1107.08 212.562 1106.55 213.094C1106.03 213.623 1105.76 214.284 1105.76 215.078C1105.76 215.873 1106.03 216.536 1106.55 217.068C1107.08 217.597 1107.74 217.861 1108.52 217.861ZM1120.45 215.078C1120.45 215.16 1120.44 215.269 1120.42 215.407H1114.25C1114.33 216.137 1114.63 216.733 1115.16 217.197C1115.69 217.657 1116.35 217.886 1117.11 217.886C1117.65 217.886 1118.14 217.77 1118.59 217.539C1119.04 217.302 1119.38 216.991 1119.63 216.605L1120.17 217.056C1119.85 217.536 1119.41 217.914 1118.87 218.189C1118.33 218.464 1117.73 218.601 1117.08 218.601C1116.04 218.601 1115.18 218.264 1114.48 217.59C1113.79 216.912 1113.44 216.07 1113.44 215.065C1113.44 214.065 1113.78 213.23 1114.45 212.56C1115.12 211.89 1115.95 211.555 1116.95 211.555C1117.95 211.555 1118.78 211.892 1119.45 212.566C1120.12 213.236 1120.45 214.073 1120.45 215.078ZM1118.77 212.953C1118.27 212.498 1117.66 212.27 1116.94 212.27C1116.22 212.27 1115.62 212.498 1115.12 212.953C1114.62 213.408 1114.33 213.996 1114.25 214.717H1119.65C1119.56 213.996 1119.27 213.408 1118.77 212.953ZM1124.92 218.601C1123.91 218.601 1123.06 218.264 1122.38 217.59C1121.7 216.916 1121.36 216.079 1121.36 215.078C1121.36 214.078 1121.7 213.24 1122.38 212.566C1123.06 211.892 1123.91 211.555 1124.92 211.555C1125.58 211.555 1126.17 211.705 1126.71 212.006C1127.25 212.306 1127.68 212.719 1127.98 213.243L1127.31 213.655C1127.07 213.238 1126.75 212.908 1126.32 212.663C1125.9 212.418 1125.44 212.296 1124.92 212.296C1124.13 212.296 1123.47 212.562 1122.94 213.094C1122.42 213.623 1122.15 214.284 1122.15 215.078C1122.15 215.873 1122.42 216.536 1122.94 217.068C1123.47 217.597 1124.13 217.861 1124.92 217.861C1125.44 217.861 1125.9 217.738 1126.32 217.493C1126.75 217.249 1127.07 216.918 1127.31 216.502L1127.98 216.907C1127.67 217.431 1127.25 217.846 1126.71 218.15C1126.17 218.451 1125.58 218.601 1124.92 218.601Z" fill="#737373" style="fill:#737373;fill:color(display-p3 0.4510 0.4510 0.4510);fill-opacity:1;"/>
<path d="M1141.2 66.4114L1116.29 84.0676C1087.15 104.716 1049.21 108.229 1016.78 93.279L1010.9 90.5718C985.597 78.9056 956.236 80.0494 931.914 93.649V93.649C914.875 103.176 895.129 106.705 875.845 103.668L833.703 97.0312C822.492 95.2658 811.524 92.2074 801.018 87.9173L771.472 75.8529C747.22 65.9497 719.718 68.0543 697.255 81.5324V81.5324C690.784 85.415 683.814 88.3987 676.538 90.4013L660.063 94.9358C628.024 103.754 594.338 104.771 561.825 97.9022L512.037 87.3835L491.929 82.5574C448.06 72.029 402.057 74.7084 359.708 90.2586L358.158 90.8276C342.884 96.436 327.021 100.287 310.876 102.305L288.749 105.071C271.451 107.233 254.86 113.255 240.202 122.692V122.692C221.424 134.782 199.561 141.212 177.227 141.212H175.086H140.436C133.209 141.212 126.409 144.634 122.103 150.438V150.438C116.528 157.951 106.935 161.302 97.8947 158.895L64.7715 150.073C43.6946 144.459 21.2127 148.521 3.43227 161.155L1 162.883" stroke="#737373" style="stroke:#737373;stroke:color(display-p3 0.4510 0.4510 0.4510);stroke-opacity:1;" stroke-width="1.39814" stroke-dasharray="4.19 4.19"/>
<path d="M15 176.864V176.864C25.1147 163.231 41.0875 155.193 58.0629 155.193H77.217H79.3577C101.692 155.193 123.554 148.764 142.333 136.673L145.484 134.645C158.067 126.543 172.311 121.373 187.161 119.517L206.676 117.077C225.932 114.67 242.894 103.245 252.361 86.305V86.305C266.722 60.6057 297.389 48.8299 325.26 58.3126L421.571 91.0813C476.711 109.842 537.696 92.0673 574.121 46.619L584.068 34.2079C587.749 29.615 592.218 25.7133 597.265 22.685V22.685C618.832 9.74488 646.668 14.9768 662.065 34.8643L691.2 72.4973C708.443 94.7696 736.038 106.458 764.033 103.348V103.348C775.786 102.042 787.11 98.1724 797.204 92.0129L809.342 84.607C842.562 64.3368 884.787 66.3796 915.895 89.7619L924.752 96.4192C952.498 117.274 990.541 117.806 1018.86 97.7358V97.7358C1034.63 86.5555 1053.93 81.4817 1073.16 83.4572L1110.22 87.2634C1140.89 90.4128 1169.49 71.4248 1178.5 41.9441V41.9441" stroke="url(#paint0_linear_410_2424)" style="" stroke-width="1.39814"/>
<defs>
<linearGradient id="paint0_linear_410_2424" x1="15" y1="5.9912" x2="1043.18" y2="18.4189" gradientUnits="userSpaceOnUse">
<stop stop-color="#F5DC6F" style="stop-color:#F5DC6F;stop-color:color(display-p3 0.9608 0.8627 0.4353);stop-opacity:1;"/>
<stop offset="1" stop-color="#95E680" style="stop-color:#95E680;stop-color:color(display-p3 0.5843 0.9020 0.5020);stop-opacity:1;"/>
</linearGradient>
</defs>
</svg>
