<svg width="30" height="24" viewBox="0 0 30 24" fill="none" xmlns="http://www.w3.org/2000/svg">
<g clip-path="url(#clip0_456_111)">
<rect x="2" y="1.49988" width="26" height="16" fill="#F5F5F5" style="fill:#F5F5F5;fill:color(display-p3 0.9608 0.9608 0.9608);fill-opacity:1;"/>
<path d="M3 2.25C2.5875 2.25 2.25 2.5875 2.25 3V16.5C2.25 16.9125 2.5875 17.25 3 17.25H27C27.4125 17.25 27.75 16.9125 27.75 16.5V3C27.75 2.5875 27.4125 2.25 27 2.25H3ZM0 3C0 1.34531 1.34531 0 3 0H27C28.6547 0 30 1.34531 30 3V16.5C30 18.1547 28.6547 19.5 27 19.5H3C1.34531 19.5 0 18.1547 0 16.5V3ZM5.625 21.75H24.375C24.9984 21.75 25.5 22.2516 25.5 22.875C25.5 23.4984 24.9984 24 24.375 24H5.625C5.00156 24 4.5 23.4984 4.5 22.875C4.5 22.2516 5.00156 21.75 5.625 21.75Z" fill="#F5F5F5" style="fill:#F5F5F5;fill:color(display-p3 0.9608 0.9608 0.9608);fill-opacity:1;"/>
</g>
<defs>
<clipPath id="clip0_456_111">
<rect width="30" height="24" fill="white" style="fill:white;fill-opacity:1;"/>
</clipPath>
</defs>
</svg>
