<svg width="16" height="16" viewBox="0 0 16 16" fill="none" xmlns="http://www.w3.org/2000/svg">
<g clip-path="url(#clip0_388_2320)">
<path fill-rule="evenodd" clip-rule="evenodd" d="M4.125 4.5076e-07L14.4375 0C14.6198 0 14.7947 0.0724328 14.9236 0.201364C15.0526 0.330295 15.125 0.505164 15.125 0.6875V11C15.125 11.3797 14.8172 11.6875 14.4375 11.6875C14.0578 11.6875 13.75 11.3797 13.75 11V2.34727L1.17364 14.9236C0.90515 15.1921 0.469849 15.1921 0.201364 14.9236C-0.0671214 14.6551 -0.0671214 14.2198 0.201364 13.9514L12.7777 1.375L4.125 1.375C3.7453 1.375 3.4375 1.0672 3.4375 0.6875C3.4375 0.307805 3.7453 4.5076e-07 4.125 4.5076e-07Z" fill="#F5F5F5" style="fill:#F5F5F5;fill:color(display-p3 0.9608 0.9608 0.9608);fill-opacity:1;"/>
</g>
<defs>
<clipPath id="clip0_388_2320">
<rect width="16" height="16" fill="white" style="fill:white;fill-opacity:1;"/>
</clipPath>
</defs>
</svg>
